# xmcd
#
# Track frame offsets: 
#        182
#        17060
#        34117
#        51350
#
# Disc length: 920 seconds
#
# Revision: 1
# Processed by: cddbd v1.5.2PL0 Copyright (c) Steve Scherf et al.
# Submitted via: ExactAudioCopy v0.99pb4
#
DISCID=2c039604
DTITLE=Peter Andre - Natural [CD Single 1)
DYEAR=1997
DGENRE=Hip Hop, Pop - RnB/Swing, Ballad
TTITLE0=Natural (Radio Edit)
TTITLE1=Natural (Soulcity Mix)
TTITLE2=You Are (Unplugged)
TTITLE3=Natural (James Khari Mix)
EXTD=genre:hip-hop
EXTT0=
EXTT1=
EXTT2=
EXTT3=
PLAYORDER=
